<?xml version="1.0" encoding="UTF-8" standalone="no"?>
<!-- Created with Inkscape (http://www.inkscape.org/) -->

<svg
   xmlns:dc="http://purl.org/dc/elements/1.1/"
   xmlns:cc="http://creativecommons.org/ns#"
   xmlns:rdf="http://www.w3.org/1999/02/22-rdf-syntax-ns#"
   xmlns:svg="http://www.w3.org/2000/svg"
   xmlns="http://www.w3.org/2000/svg"
   xmlns:sodipodi="http://sodipodi.sourceforge.net/DTD/sodipodi-0.dtd"
   xmlns:inkscape="http://www.inkscape.org/namespaces/inkscape"
   width="205.57738"
   height="111.80885"
   viewBox="0 0 54.392348 29.582757"
   version="1.1"
   id="svg11866"
   inkscape:version="0.92.0 r15299"
   sodipodi:docname="northwell health.svg">
  <defs
     id="defs11860">
    <clipPath
       id="clipPath11616"
       clipPathUnits="userSpaceOnUse">
      <path
         inkscape:connector-curvature="0"
         id="path11614"
         d="M 0,792 H 612 V 0 H 0 Z" />
    </clipPath>
    <clipPath
       id="clipPath11624"
       clipPathUnits="userSpaceOnUse">
      <path
         inkscape:connector-curvature="0"
         id="path11622"
         d="m 36,36 h 152.683 v 82.356 H 36 Z" />
    </clipPath>
  </defs>
  <sodipodi:namedview
     id="base"
     pagecolor="#ffffff"
     bordercolor="#666666"
     borderopacity="1.0"
     inkscape:pageopacity="0.0"
     inkscape:pageshadow="2"
     inkscape:zoom="4.4061881"
     inkscape:cx="101.78862"
     inkscape:cy="54.904322"
     inkscape:document-units="mm"
     inkscape:current-layer="layer1"
     showgrid="false"
     fit-margin-top="0"
     fit-margin-left="0"
     fit-margin-right="0"
     fit-margin-bottom="0"
     units="px"
     inkscape:window-width="1280"
     inkscape:window-height="744"
     inkscape:window-x="-4"
     inkscape:window-y="-4"
     inkscape:window-maximized="1" />
  <metadata
     id="metadata11863">
    <rdf:RDF>
      <cc:Work
         rdf:about="">
        <dc:format>image/svg+xml</dc:format>
        <dc:type
           rdf:resource="http://purl.org/dc/dcmitype/StillImage" />
        <dc:title></dc:title>
      </cc:Work>
    </rdf:RDF>
  </metadata>
  <g
     inkscape:label="Layer 1"
     inkscape:groupmode="layer"
     id="layer1"
     transform="translate(-60.002941,-149.65232)">
    <g
       id="g12172"
       transform="translate(0.26458437,-0.26457297)">
      <path
         inkscape:connector-curvature="0"
         id="path11628"
         style="fill:#612e8a;fill-opacity:1;fill-rule:nonzero;stroke:none;stroke-width:0.35277778"
         d="m 64.19394,169.13513 v -3.82199 c 0,-0.15064 -0.122061,-0.27235 -0.272344,-0.27235 h -3.821995 c -0.05362,0 -0.09666,0.043 -0.09666,0.0963 0,0.0268 0.01094,0.0508 0.02822,0.0684 v 0 l 3.998031,3.99803 c 0.01729,0.0173 0.04163,0.0282 0.06809,0.0282 0.05362,0 0.09666,-0.0434 0.09666,-0.0967" />
      <path
         inkscape:connector-curvature="0"
         id="path11632"
         style="fill:#8a3b96;fill-opacity:1;fill-rule:nonzero;stroke:none;stroke-width:0.35277778"
         d="m 69.14694,169.02348 v -3.71792 c 0,-0.14641 -0.118533,-0.26494 -0.264936,-0.26494 h -3.717925 c -0.05186,0 -0.09384,0.042 -0.09384,0.0938 0,0.0261 0.01058,0.0494 0.02752,0.0663 v 3.5e-4 l 3.889022,3.88867 c 0.01693,0.0169 0.04022,0.0275 0.06632,0.0275 0.05186,0 0.09384,-0.042 0.09384,-0.0938" />
      <path
         inkscape:connector-curvature="0"
         id="path11636"
         style="fill:#f47421;fill-opacity:1;fill-rule:nonzero;stroke:none;stroke-width:0.35277778"
         d="m 74.099939,169.02348 v -3.71792 c 0,-0.14641 -0.118533,-0.26494 -0.264936,-0.26494 h -3.717925 c -0.05186,0 -0.09384,0.042 -0.09384,0.0938 0,0.0261 0.01058,0.0494 0.02752,0.0663 v 3.5e-4 l 3.889022,3.88867 c 0.01693,0.0169 0.04022,0.0275 0.06632,0.0275 0.05186,0 0.09384,-0.042 0.09384,-0.0938" />
      <path
         inkscape:connector-curvature="0"
         id="path11640"
         style="fill:#8a3b96;fill-opacity:1;fill-rule:nonzero;stroke:none;stroke-width:0.35277778"
         d="m 64.19394,164.07044 v -3.71792 c 0,-0.14641 -0.118533,-0.26494 -0.264936,-0.26494 h -3.717925 c -0.05186,0 -0.09384,0.042 -0.09384,0.0938 0,0.0261 0.01058,0.0494 0.02752,0.0667 v 0 l 3.889022,3.88867 c 0.01693,0.0169 0.04022,0.0275 0.06632,0.0275 0.05186,0 0.09384,-0.042 0.09384,-0.0938" />
      <path
         inkscape:connector-curvature="0"
         id="path11644"
         style="fill:#bb88bd;fill-opacity:1;fill-rule:nonzero;stroke:none;stroke-width:0.35277778"
         d="m 69.14694,164.07044 v -3.71792 c 0,-0.14641 -0.118533,-0.26494 -0.264936,-0.26494 h -3.717925 c -0.05186,0 -0.09384,0.042 -0.09384,0.0938 0,0.0261 0.01058,0.0494 0.02752,0.0667 v 0 l 3.889022,3.88867 c 0.01693,0.0169 0.04022,0.0275 0.06632,0.0275 0.05186,0 0.09384,-0.042 0.09384,-0.0938" />
      <path
         inkscape:connector-curvature="0"
         id="path11648"
         style="fill:#f0492c;fill-opacity:1;fill-rule:nonzero;stroke:none;stroke-width:0.35277778"
         d="m 74.099939,163.25158 v -2.95346 c 0,-0.11606 -0.09419,-0.2106 -0.210608,-0.2106 h -2.953456 c -0.04092,0 -0.07444,0.0335 -0.07444,0.0748 0,0.0205 0.0085,0.0392 0.02187,0.0526 v 0 l 3.089275,3.08927 c 0.01341,0.0138 0.0321,0.0219 0.05292,0.0219 0.04092,0 0.07444,-0.0332 0.07444,-0.0744" />
      <path
         inkscape:connector-curvature="0"
         id="path11652"
         style="fill:#fdb913;fill-opacity:1;fill-rule:nonzero;stroke:none;stroke-width:0.35277778"
         d="m 79.052939,162.9538 v -2.67547 c 0,-0.10512 -0.08537,-0.1905 -0.190853,-0.1905 h -2.675114 c -0.03739,0 -0.06773,0.03 -0.06773,0.0674 0,0.0187 0.0074,0.0356 0.01976,0.0476 v 3.5e-4 l 2.798586,2.79823 c 0.01235,0.0123 0.02928,0.0201 0.04763,0.0201 0.03739,0 0.06773,-0.0303 0.06773,-0.0677" />
      <path
         inkscape:connector-curvature="0"
         id="path11656"
         style="fill:#009347;fill-opacity:1;fill-rule:nonzero;stroke:none;stroke-width:0.35277778"
         d="m 64.19394,159.11748 v -3.71792 c 0,-0.14641 -0.118533,-0.26494 -0.264936,-0.26494 h -3.717925 c -0.05186,0 -0.09384,0.042 -0.09384,0.0938 0,0.0261 0.01058,0.0494 0.02752,0.0663 v 3.5e-4 l 3.889022,3.88867 c 0.01693,0.0169 0.04022,0.0275 0.06632,0.0275 0.05186,0 0.09384,-0.042 0.09384,-0.0938" />
      <path
         inkscape:connector-curvature="0"
         id="path11660"
         style="fill:#bcda85;fill-opacity:1;fill-rule:nonzero;stroke:none;stroke-width:0.35277778"
         d="m 69.14694,158.29858 v -2.95346 c 0,-0.11606 -0.09419,-0.2106 -0.210608,-0.2106 h -2.953456 c -0.04092,0 -0.07444,0.0335 -0.07444,0.0748 0,0.0205 0.0085,0.0392 0.02187,0.0526 v 0 l 3.089275,3.08927 c 0.01341,0.0138 0.0321,0.0219 0.05292,0.0219 0.04092,0 0.07444,-0.0332 0.07444,-0.0744" />
      <path
         inkscape:connector-curvature="0"
         id="path11664"
         style="fill:#8d95ca;fill-opacity:1;fill-rule:nonzero;stroke:none;stroke-width:0.35277778"
         d="m 74.099939,158.0008 v -2.67547 c 0,-0.10512 -0.08537,-0.1905 -0.190853,-0.1905 h -2.675114 c -0.03739,0 -0.06773,0.03 -0.06773,0.0674 0,0.0187 0.0074,0.0356 0.01976,0.0476 v 3.5e-4 l 2.798586,2.79823 c 0.01235,0.0123 0.02928,0.0201 0.04762,0.0201 0.03739,0 0.06773,-0.0303 0.06773,-0.0677" />
      <path
         inkscape:connector-curvature="0"
         id="path11668"
         style="fill:#009cda;fill-opacity:1;fill-rule:nonzero;stroke:none;stroke-width:0.35277778"
         d="m 79.052939,157.46105 v -2.1717 c 0,-0.0854 -0.06914,-0.15487 -0.154869,-0.15487 h -2.1717 c -0.02999,0 -0.05468,0.0247 -0.05468,0.055 0,0.0152 0.006,0.0289 0.01623,0.0388 v 0 l 2.271536,2.27154 c 0.0099,0.01 0.02364,0.0159 0.03881,0.0159 0.02999,0 0.05468,-0.0243 0.05468,-0.0547" />
      <path
         inkscape:connector-curvature="0"
         id="path11672"
         style="fill:#48b749;fill-opacity:1;fill-rule:nonzero;stroke:none;stroke-width:0.35277778"
         d="m 64.19394,153.34558 v -2.95346 c 0,-0.11606 -0.09419,-0.2106 -0.210608,-0.2106 h -2.953456 c -0.04092,0 -0.07444,0.0335 -0.07444,0.0748 0,0.0205 0.0085,0.0391 0.02187,0.0526 v 0 l 3.089275,3.08927 c 0.01341,0.0138 0.0321,0.0219 0.05292,0.0219 0.04092,0 0.07444,-0.0332 0.07444,-0.0744" />
      <path
         inkscape:connector-curvature="0"
         id="path11676"
         style="fill:#bcda85;fill-opacity:1;fill-rule:nonzero;stroke:none;stroke-width:0.35277778"
         d="m 69.14694,153.0478 v -2.67547 c 0,-0.10512 -0.08537,-0.1905 -0.190853,-0.1905 h -2.675114 c -0.03739,0 -0.06773,0.03 -0.06773,0.0674 0,0.0187 0.0074,0.0356 0.01976,0.0476 v 3.5e-4 l 2.798586,2.79823 c 0.01235,0.0123 0.02928,0.0201 0.04762,0.0201 0.03739,0 0.06773,-0.0303 0.06773,-0.0677" />
      <path
         inkscape:connector-curvature="0"
         id="path11680"
         style="fill:#0059a5;fill-opacity:1;fill-rule:nonzero;stroke:none;stroke-width:0.35277778"
         d="m 74.099939,152.50805 v -2.1717 c 0,-0.0854 -0.06914,-0.15487 -0.154869,-0.15487 h -2.1717 c -0.02999,0 -0.05468,0.0247 -0.05468,0.055 0,0.0152 0.006,0.0289 0.01623,0.0388 v 0 l 2.271536,2.27154 c 0.0099,0.01 0.02364,0.0159 0.03881,0.0159 0.02999,0 0.05468,-0.0243 0.05468,-0.0547" />
      <path
         inkscape:connector-curvature="0"
         id="path11684"
         style="fill:#6acdec;fill-opacity:1;fill-rule:nonzero;stroke:none;stroke-width:0.35277778"
         d="m 79.052939,152.50805 v -2.1717 c 0,-0.0854 -0.06914,-0.15487 -0.154869,-0.15487 h -2.1717 c -0.02999,0 -0.05468,0.0247 -0.05468,0.055 0,0.0152 0.006,0.0289 0.01623,0.0388 v 0 l 2.271536,2.27154 c 0.0099,0.01 0.02364,0.0159 0.03881,0.0159 0.02999,0 0.05468,-0.0243 0.05468,-0.0547" />
      <path
         inkscape:connector-curvature="0"
         id="path11688"
         style="fill:#0059a5;fill-opacity:1;fill-rule:nonzero;stroke:none;stroke-width:0.35277778"
         d="m 95.348097,173.17723 h 0.62865 v 2.47368 c 0.277636,-0.4572 0.718256,-0.82444 1.444978,-0.82444 1.020586,0 1.616427,0.6858 1.616427,1.6898 v 2.62079 h -0.62865 v -2.46557 c 0,-0.78387 -0.424391,-1.27352 -1.167341,-1.27352 -0.72637,0 -1.265414,0.53057 -1.265414,1.32256 v 2.41653 h -0.62865 z m -2.692753,4.84152 v -2.54741 h -0.587727 v -0.55527 h 0.587727 v -1.27353 h 0.628297 v 1.27353 h 1.339145 v 0.55527 h -1.339145 v 2.46557 c 0,0.51435 0.28575,0.70238 0.710495,0.70238 0.212372,0 0.391936,-0.0413 0.612422,-0.14711 v 0.53869 c -0.220486,0.1143 -0.4572,0.17992 -0.75953,0.17992 -0.677687,0 -1.191684,-0.33514 -1.191684,-1.19204 m -1.991783,-4.84152 h 0.62865 v 5.95983 h -0.62865 z m -1.617133,4.40866 v -0.39193 c -0.310092,-0.0896 -0.718256,-0.17957 -1.232606,-0.17957 -0.783872,0 -1.232958,0.3429 -1.232958,0.84914 v 0.0162 c 0,0.53093 0.490008,0.84102 1.061508,0.84102 0.775406,0 1.404056,-0.46567 1.404056,-1.13489 m -3.102328,0.32632 v -0.0159 c 0,-0.90629 0.734836,-1.38007 1.804458,-1.38007 0.538692,0 0.9144,0.0737 1.289756,0.17992 v -0.13088 c 0,-0.75107 -0.4572,-1.143 -1.249186,-1.143 -0.49777,0 -0.889706,0.12241 -1.281995,0.30198 l -0.187325,-0.51435 c 0.465314,-0.21202 0.9144,-0.35913 1.534584,-0.35913 0.595841,0 1.061508,0.16333 1.363486,0.46531 0.293864,0.29387 0.440972,0.70238 0.440972,1.24107 v 2.57987 h -0.620536 v -0.62865 c -0.293864,0.37535 -0.775406,0.71825 -1.518356,0.71825 -0.791986,0 -1.575858,-0.44873 -1.575858,-1.31445 m -1.174397,-1.13453 c -0.07338,-0.76764 -0.51435,-1.42064 -1.346906,-1.42064 -0.726722,0 -1.281994,0.60431 -1.3716,1.42064 z m -1.232606,1.91029 c 0.579614,0 0.987778,-0.23671 1.330678,-0.59584 l 0.391936,0.35101 c -0.424744,0.47343 -0.939094,0.79199 -1.739194,0.79199 -1.159228,0 -2.106436,-0.89006 -2.106436,-2.20451 0,-1.22449 0.85725,-2.20415 2.024944,-2.20415 1.249186,0 1.967442,0.99589 1.967442,2.23696 0,0.0571 0,0.12241 -0.0081,0.22013 h -3.347156 c 0.08961,0.89006 0.74295,1.40441 1.4859,1.40441 M 76.1951,173.422 h 0.645231 v 2.53929 H 80.13845 V 173.422 h 0.645231 v 5.715 H 80.13845 v -2.57175 H 76.840331 V 179.137 H 76.1951 Z m 36.42995,-8.62648 h 1.24107 v 5.95983 h -1.24107 z m -2.25461,0 h 1.24107 v 5.95983 h -1.24107 z m -1.90923,3.429 c -0.0734,-0.55527 -0.40005,-0.93062 -0.92251,-0.93062 -0.51435,0 -0.84879,0.36724 -0.94721,0.93062 z m -3.08575,0.36724 v -0.0162 c 0,-1.24919 0.88971,-2.27789 2.16324,-2.27789 1.46155,0 2.13077,1.13489 2.13077,2.37596 0,0.0977 -0.008,0.21202 -0.0162,0.32632 h -3.04518 c 0.12241,0.56338 0.51435,0.85725 1.06927,0.85725 0.41663,0 0.71861,-0.13053 1.06151,-0.44873 l 0.71014,0.62865 c -0.40817,0.50588 -0.99589,0.81632 -1.78788,0.81632 -1.3141,0 -2.28565,-0.92251 -2.28565,-2.26166 m -6.795905,-2.21226 h 1.2573 l 0.702025,2.65324 0.82444,-2.66983 h 1.06962 l 0.83291,2.67794 0.71826,-2.66135 h 1.23296 l -1.36384,4.40866 h -1.11831 l -0.84067,-2.68605 -0.85725,2.68605 h -1.110539 z m -4.380794,-1.58398 H 95.4395 v 2.20416 c 0.286103,-0.36724 0.653345,-0.70203 1.281995,-0.70203 0.938742,0 1.4859,0.62054 1.4859,1.6249 v 2.8328 h -1.241072 v -2.44122 c 0,-0.58773 -0.277636,-0.88971 -0.751064,-0.88971 -0.473428,0 -0.775759,0.30198 -0.775759,0.88971 v 2.44122 h -1.240719 z m -3.064228,4.71876 v -2.07363 h -0.522464 v -1.06115 h 0.522464 v -1.11866 h 1.241073 v 1.11866 h 1.028699 v 1.06115 h -1.028699 v 1.86972 c 0,0.28575 0.122413,0.42439 0.40005,0.42439 0.228599,0 0.432858,-0.0572 0.612069,-0.15486 v 0.99589 c -0.261056,0.15522 -0.563386,0.25294 -0.979311,0.25294 -0.759531,0 -1.273881,-0.30198 -1.273881,-1.31445 m -3.818466,-3.13478 h 1.240719 v 0.88159 c 0.253295,-0.60396 0.661458,-0.99589 1.396295,-0.96344 v 1.29822 h -0.06562 c -0.824442,0 -1.330678,0.49813 -1.330678,1.54305 v 1.61643 h -1.240719 z m -1.877836,2.21226 v -0.0162 c 0,-0.64488 -0.465314,-1.20827 -1.151114,-1.20827 -0.710142,0 -1.134886,0.54681 -1.134886,1.19204 v 0.0162 c 0,0.64487 0.465314,1.20826 1.151114,1.20826 0.710494,0 1.134886,-0.5468 1.134886,-1.19204 m -3.510492,0 v -0.0162 c 0,-1.2573 1.012119,-2.27789 2.375606,-2.27789 1.355372,0 2.35973,1.00436 2.35973,2.26166 v 0.0162 c 0,1.2573 -1.012472,2.27788 -2.375958,2.27788 -1.355372,0 -2.359378,-1.00436 -2.359378,-2.26166 m -5.732286,-3.55141 h 1.159228 l 2.677936,3.51896 v -3.51896 h 1.241072 v 5.715 h -1.069622 l -2.767542,-3.6329 v 3.6329 h -1.241072 z" />
      <path
         inkscape:connector-curvature="0"
         id="path11692"
         style="fill:#0059a5;fill-opacity:1;fill-rule:nonzero;stroke:none;stroke-width:0.35277778"
         d="m 100.82684,175.59855 c 0.0963,0 0.1464,-0.0455 0.1464,-0.1143 0,-0.0734 -0.0547,-0.10971 -0.1464,-0.10971 h -0.16863 v 0.22401 z m -0.3743,-0.40217 h 0.38806 c 0.19685,0 0.33902,0.0868 0.33902,0.27411 0,0.13265 -0.0734,0.21943 -0.18345,0.25577 l 0.21026,0.30197 h -0.24201 l -0.17815,-0.26529 h -0.12806 v 0.26529 h -0.20567 z m 1.03752,0.42969 v -0.005 c 0,-0.38841 -0.30198,-0.70873 -0.70379,-0.70873 -0.39793,0 -0.70379,0.32491 -0.70379,0.71332 v 0.004 c 0,0.38841 0.30127,0.70873 0.70379,0.70873 0.39758,0 0.70379,-0.32456 0.70379,-0.71296 m -1.499656,0.004 v -0.004 c 0,-0.43427 0.352076,-0.8001 0.795866,-0.8001 0.44768,0 0.79481,0.36124 0.79481,0.79551 v 0.005 c 0,0.43391 -0.35172,0.79974 -0.79481,0.79974 -0.44803,0 -0.795866,-0.36089 -0.795866,-0.79551" />
    </g>
  </g>
</svg>
